<svg id="Layer_1" data-name="Layer 1" xmlns="http://www.w3.org/2000/svg" viewBox="0 0 418.69 388.05"><defs><style>.cls-1{fill:#002d5d;}.cls-2{fill:#d50037;}</style></defs><path class="cls-1" d="M277.4,287.88c-3.46,3.22-5.85,5.32-6.21,5.63l-.21.17c-34.76,25.41-64,58.15-64.33,58.48l-2.77,3.11-2.18-3.55c-2-3.27-11.85-12.37-23.84-22.79-4.46,1.68-9,3.35-13.54,5,15.14,13.08,29.24,27.48,39.77,46.09,18-28.82,43.68-48.31,67.94-69.17a263.28,263.28,0,0,0,36.13-37.5c-9,4.46-18.39,8.87-28.27,13.38Z"/><path class="cls-1" d="M50.28,98.47c-.07,11.56.56,23.14,1.37,34.68C54.89,179,66.51,220.66,89.2,256.93l13.07-2.67C86.63,230.63,75.9,203.82,70.3,174c-4.3-22.87-5.44-46.26-6.56-68.89l-.09-1.95c-.56-11.37,3.47-16.12,14.89-17.55,52.78-6.58,90.74-22.75,119.45-50.9,5.53-5.43,9.47-3.07,12.92.28,28.66,27.93,66.28,44,118.4,50.51,11.94,1.5,16.06,6.19,15.75,17.92-.4,15.39-1.2,31.06-3,46.77a9.92,9.92,0,0,1,1.34-.26,27.33,27.33,0,0,1,11.27,1.46,472.46,472.46,0,0,0,4.17-59.12l-.32-9.54a8.12,8.12,0,0,0-7.77-7.84l-4.85-.21C287.71,67.08,239,50.94,204,9.87c-12.71,16.78-29.09,29-47.41,38.68C129.81,62.68,101,70.36,71.08,74.42,45.66,77.87,50.44,72.7,50.28,98.47Z"/><path class="cls-2" d="M335.05,156.1a489.68,489.68,0,0,0,3.82-52.82c.22-8.55-1.51-10.51-10.33-11.61C275,85,236.26,68.37,206.58,39.45c-1.67-1.63-2.19-1.75-2.28-1.76s-.54.05-2,1.46C172.6,68.3,133.51,85,79.31,91.78c-8.1,1-9.87,3.09-9.47,11.09l.09,2c1.1,22.41,2.24,45.59,6.46,68,5.61,29.85,16.5,56.59,32.45,80l18.53-3.81C172.18,239.84,223,229.34,271.84,215c20-5.88,38.32-11.62,55.16-19.93a265.77,265.77,0,0,0,7.29-33.62,10,10,0,0,1,.23-3.77A9.87,9.87,0,0,1,335.05,156.1Zm-79.53,37.32a15.45,15.45,0,0,1-30.89,0V175.3a15.44,15.44,0,0,0-15.44-15.44h-13.7a15.44,15.44,0,0,0-15.44,15.44v18.12a15.45,15.45,0,0,1-15.45,15.44h0a15.44,15.44,0,0,1-15.44-15.44V105.51A15.45,15.45,0,0,1,164.6,90.06h0a15.45,15.45,0,0,1,15.45,15.45v15a15.44,15.44,0,0,0,15.44,15.44h13.7a15.44,15.44,0,0,0,15.44-15.44v-15a15.45,15.45,0,1,1,30.89,0Z"/><path class="cls-2" d="M204.5,345.33a501.13,501.13,0,0,1,51.39-47.9c-22.64,9.83-46.37,19.47-71.45,29C192.85,333.81,200.47,340.82,204.5,345.33Z"/><path class="cls-1" d="M372.57,168.59a28.71,28.71,0,0,1,7.25,9.26c.72,1.49,2.39,3.55-.4,4.37-1.66.49-4.12,1.36-5.39-1.16-.5-1-.7-2.16-1.17-3.19-2.79-6.13-11.78-13-19.76-16.08a19.21,19.21,0,0,0-8.58-1.57c2.45,1.74,4.91,3.24,7.09,5.07l.78.67c10.53,9.27,10,18.52-1.54,27.17-1.08.81-2.24,1.53-3.38,2.26l-1.62,1c-22,13.62-46.51,21.25-71.1,28.48-47.8,14.07-96.53,24.27-145.28,34.35q-17.07,3.53-34.13,7-35.53,7.26-71.08,14.43l30.4,24.06q25.19-6.6,50.38-13.15c2.27-.59,4.51-2,7,.24,3.82,3.48,8,6.6,12,9.88-.51.71-1,1.42-1.54,2.14l-50.07,14.9,32.08,25.39q25.5-8.61,50.77-17.8c40.7-14.82,80.91-30.92,120.39-48.94,15.32-7,30.53-14.21,45.34-22.16a358.21,358.21,0,0,0,48-30.35c9.59-7.3,18.62-15.26,23.86-26.49C398.9,185.21,387.23,167.55,372.57,168.59ZM206.45,277.31c-18.45,6-37,11.64-55.39,17.88-5.81,2-10.29,1.55-14.62-2.87-2.32-2.37-5.22-4.16-8.68-6.85,13.91-4,26.83-7.66,39.72-11.41,13.65-4,27.31-7.92,40.89-12.11,12.9-4,12.86-4.12,23.06,6.8C222.87,271.69,214.71,274.64,206.45,277.31Zm61.91-21.52c-4.64,1.8-9.37,3.34-14.08,5-11.61,4-11.62,4-19.47-6.54,19.35-6.9,38.6-14,58-20.56,5.75-1.94,8.85,4.13,13.61,7.14C293.76,245.8,281.08,250.86,268.36,255.79ZM335.69,227q-6.48,3.36-13.08,6.33c-5.62,2.52-9.18-3.4-15.73-5.24,12.48-5.4,23.55-10.38,34.27-15.55,2.31-1.12,4.61-2.24,6.9-3.38,3.88-1.93,8.13.88,12.81,2.52A210.6,210.6,0,0,1,335.69,227ZM380,192a38.19,38.19,0,0,1-9.9,12.65c-3.85,3.35-7-.74-10.6-.85,5.08-5.09,10.85-8.78,13.49-15.42,1.34-3.37,4.43-1.87,6.46-1.3C382.43,187.89,380.73,190.41,380,192Z"/></svg>